<?xml version="1.0" encoding="UTF-8" standalone="no"?>
<!-- Created with Inkscape (http://www.inkscape.org/) -->

<svg
   xmlns:dc="http://purl.org/dc/elements/1.1/"
   xmlns:cc="http://creativecommons.org/ns#"
   xmlns:rdf="http://www.w3.org/1999/02/22-rdf-syntax-ns#"
   xmlns:svg="http://www.w3.org/2000/svg"
   xmlns="http://www.w3.org/2000/svg"
   xmlns:sodipodi="http://sodipodi.sourceforge.net/DTD/sodipodi-0.dtd"
   xmlns:inkscape="http://www.inkscape.org/namespaces/inkscape"
   width="145.67555mm"
   height="133.04559mm"
   viewBox="0 0 516.17322 471.42136"
   id="svg2"
   version="1.1"
   inkscape:version="0.91 r"
   sodipodi:docname="cache.svg">
  <defs
     id="defs4" />
  <sodipodi:namedview
     id="base"
     pagecolor="#ffffff"
     bordercolor="#666666"
     borderopacity="1.0"
     inkscape:pageopacity="0.0"
     inkscape:pageshadow="2"
     inkscape:zoom="1.3830514"
     inkscape:cx="258.08661"
     inkscape:cy="235.7107"
     inkscape:document-units="px"
     inkscape:current-layer="layer1"
     showgrid="false"
     inkscape:window-width="1600"
     inkscape:window-height="843"
     inkscape:window-x="0"
     inkscape:window-y="25"
     inkscape:window-maximized="1"
     fit-margin-left="2"
     fit-margin-right="2"
     fit-margin-bottom="2"
     fit-margin-top="2" />
  <metadata
     id="metadata7">
    <rdf:RDF>
      <cc:Work
         rdf:about="">
        <dc:format>image/svg+xml</dc:format>
        <dc:type
           rdf:resource="http://purl.org/dc/dcmitype/StillImage" />
        <dc:title></dc:title>
      </cc:Work>
    </rdf:RDF>
  </metadata>
  <g
     inkscape:label="Layer 1"
     inkscape:groupmode="layer"
     id="layer1"
     transform="translate(-130.86243,-16.899065)">
    <g
       id="g4251">
      <ellipse
         ry="52.456703"
         rx="235.65166"
         cy="411.44238"
         cx="388.98663"
         id="ellipse4321"
         style="opacity:1;fill:#b4b4b4;fill-opacity:1;stroke:#000000;stroke-width:10;stroke-linecap:butt;stroke-linejoin:miter;stroke-miterlimit:4;stroke-dasharray:none;stroke-dashoffset:0;stroke-opacity:1" />
      <ellipse
         style="opacity:1;fill:#b4b4b4;fill-opacity:1;stroke:#000000;stroke-width:10;stroke-linecap:butt;stroke-linejoin:miter;stroke-miterlimit:4;stroke-dasharray:none;stroke-dashoffset:0;stroke-opacity:1"
         id="ellipse4323"
         cx="388.98663"
         cy="351.44238"
         rx="235.65166"
         ry="52.456703" />
      <path
         inkscape:connector-curvature="0"
         id="path4325"
         d="m 152.94904,353.16378 0,58.10589"
         style="fill:none;fill-rule:evenodd;stroke:#000000;stroke-width:10;stroke-linecap:butt;stroke-linejoin:miter;stroke-miterlimit:4;stroke-dasharray:none;stroke-opacity:1" />
      <path
         style="fill:none;fill-rule:evenodd;stroke:#000000;stroke-width:10;stroke-linecap:butt;stroke-linejoin:miter;stroke-miterlimit:4;stroke-dasharray:none;stroke-opacity:1"
         d="m 624.94904,353.16378 0,58.10589"
         id="path4327"
         inkscape:connector-curvature="0" />
      <ellipse
         ry="52.456703"
         rx="235.65166"
         cy="351.44238"
         cx="388.98663"
         id="ellipse4329"
         style="opacity:1;fill:#b4b4b4;fill-opacity:1;stroke:#000000;stroke-width:30;stroke-linecap:butt;stroke-linejoin:miter;stroke-miterlimit:4;stroke-dasharray:none;stroke-dashoffset:0;stroke-opacity:1" />
      <path
         style="fill:none;fill-rule:evenodd;stroke:#000000;stroke-width:30;stroke-linecap:butt;stroke-linejoin:miter;stroke-miterlimit:4;stroke-dasharray:none;stroke-opacity:1"
         d="m 152.94904,353.16378 0,58.10589"
         id="path4331"
         inkscape:connector-curvature="0" />
      <path
         inkscape:connector-curvature="0"
         id="path4333"
         d="m 624.94904,353.16378 0,58.10589"
         style="fill:none;fill-rule:evenodd;stroke:#000000;stroke-width:30;stroke-linecap:butt;stroke-linejoin:miter;stroke-miterlimit:4;stroke-dasharray:none;stroke-opacity:1" />
      <path
         sodipodi:nodetypes="csssssssssssssssssssssssssc"
         inkscape:connector-curvature="0"
         id="path4335"
         d="m 152.9352,409.66452 c 0,0 0.50278,8.75405 3.99457,13.12504 3.03387,3.79777 9.37516,8.04456 13.69569,10.27177 4.99559,2.5752 10.17723,4.79106 15.40765,6.84784 5.99007,2.3555 12.08952,4.44875 18.26092,6.27719 6.01583,1.78235 12.13947,3.18872 18.26092,4.56523 6.62407,1.48953 13.29147,2.78805 19.97288,3.99458 5.8779,1.06143 11.77597,2.0182 17.69027,2.85327 6.26103,0.88403 12.55182,1.54318 18.83157,2.28261 6.65499,0.78361 13.30008,1.66885 19.97288,2.28262 8.16479,0.75101 16.35622,1.17862 24.53811,1.71196 6.27539,0.40906 12.55056,0.83022 18.83157,1.1413 9.88653,0.48966 19.77718,0.95106 29.674,1.14131 6.46621,0.1243 12.9352,0.0703 19.40222,0 8.75157,-0.0951 17.50291,-0.27681 26.25007,-0.57065 8.37351,-0.28128 16.74669,-0.62133 25.10877,-1.14131 7.23679,-0.45001 14.45889,-1.11256 21.68484,-1.71196 8.75298,-0.72607 17.52436,-1.28075 26.25007,-2.28262 9.35385,-1.07399 18.65746,-2.55478 27.96203,-3.99457 6.86065,-1.06162 13.73271,-2.07921 20.54354,-3.42392 6.69999,-1.32282 13.33102,-2.9761 19.97288,-4.56523 6.10208,-1.45998 12.24835,-2.77193 18.26092,-4.56523 4.43888,-1.32393 8.81734,-2.86224 13.12503,-4.56523 5.22667,-2.0663 10.40063,-4.29493 15.40765,-6.84785 3.72045,-1.89694 7.4712,-3.81244 10.84242,-6.27719 2.28276,-1.66896 4.97472,-3.19657 6.27719,-5.70654 1.41273,-2.72245 1.14131,-9.13046 1.14131,-9.13046"
         style="fill:none;fill-rule:evenodd;stroke:#000000;stroke-width:30;stroke-linecap:butt;stroke-linejoin:miter;stroke-miterlimit:4;stroke-dasharray:none;stroke-opacity:1" />
      <path
         style="fill:none;fill-rule:evenodd;stroke:#000000;stroke-width:10;stroke-linecap:butt;stroke-linejoin:miter;stroke-miterlimit:4;stroke-dasharray:none;stroke-opacity:1"
         d="m 152.9352,347.66452 c 0,0 0.50278,8.75405 3.99457,13.12504 3.03387,3.79777 9.37516,8.04456 13.69569,10.27177 4.99559,2.5752 10.17723,4.79106 15.40765,6.84784 5.99007,2.3555 12.08952,4.44875 18.26092,6.27719 6.01583,1.78235 12.13947,3.18872 18.26092,4.56523 6.62407,1.48953 13.29147,2.78805 19.97288,3.99458 5.8779,1.06143 11.77597,2.0182 17.69027,2.85327 6.26103,0.88403 12.55182,1.54318 18.83157,2.28261 6.65499,0.78361 13.30008,1.66885 19.97288,2.28262 8.16479,0.75101 16.35622,1.17862 24.53811,1.71196 6.27539,0.40906 12.55056,0.83022 18.83157,1.1413 9.88653,0.48966 19.77718,0.95106 29.674,1.14131 6.46621,0.1243 12.9352,0.0703 19.40222,0 8.75157,-0.0951 17.50291,-0.27681 26.25007,-0.57065 8.37351,-0.28128 16.74669,-0.62133 25.10877,-1.14131 7.23679,-0.45001 14.45889,-1.11256 21.68484,-1.71196 8.75298,-0.72607 17.52436,-1.28075 26.25007,-2.28262 9.35385,-1.07399 18.65746,-2.55478 27.96203,-3.99457 6.86065,-1.06162 13.73271,-2.07921 20.54354,-3.42392 6.69999,-1.32282 13.33102,-2.9761 19.97288,-4.56523 6.10208,-1.45998 12.24835,-2.77193 18.26092,-4.56523 4.43888,-1.32393 8.81734,-2.86224 13.12503,-4.56523 5.22667,-2.0663 10.40063,-4.29493 15.40765,-6.84785 3.72045,-1.89694 7.4712,-3.81244 10.84242,-6.27719 2.28276,-1.66896 4.97472,-3.19657 6.27719,-5.70654 1.41273,-2.72245 1.14131,-9.13046 1.14131,-9.13046"
         id="path4337"
         inkscape:connector-curvature="0"
         sodipodi:nodetypes="csssssssssssssssssssssssssc" />
      <path
         inkscape:connector-curvature="0"
         id="path4339"
         d="m 324.27129,458.47508 c -68.86555,-5.17009 -119.69073,-15.28671 -148.3447,-29.52761 -16.04249,-7.97306 -16.98944,-9.96358 -17.66299,-37.12818 -0.55494,-22.3812 -0.50056,-22.8195 2.49478,-20.10875 1.68415,1.52413 7.75003,4.88952 13.47973,7.47863 75.23129,33.99518 265.79415,40.86307 382.45674,13.78373 22.86234,-5.30673 35.52306,-9.56539 50.59092,-17.01717 l 12.66069,-6.26133 -0.5553,23.1798 c -0.4113,17.16937 -1.15898,23.90637 -2.88347,25.98186 -3.20349,3.85553 -21.77557,13.01036 -35.95266,17.72233 -24.98963,8.30568 -70.15883,16.43483 -113.4401,20.41594 -25.078,2.30673 -118.88847,3.27919 -142.84364,1.48075 z"
         style="opacity:1;fill:#b4b4b4;fill-opacity:1;stroke:#b4b4b4;stroke-width:0;stroke-linecap:butt;stroke-linejoin:miter;stroke-miterlimit:4;stroke-dasharray:none;stroke-dashoffset:0;stroke-opacity:1" />
    </g>
    <g
       id="g4263"
       transform="translate(0,-130)">
      <ellipse
         style="opacity:1;fill:#b4b4b4;fill-opacity:1;stroke:#000000;stroke-width:10;stroke-linecap:butt;stroke-linejoin:miter;stroke-miterlimit:4;stroke-dasharray:none;stroke-dashoffset:0;stroke-opacity:1"
         id="ellipse4265"
         cx="388.98663"
         cy="411.44238"
         rx="235.65166"
         ry="52.456703" />
      <ellipse
         ry="52.456703"
         rx="235.65166"
         cy="351.44238"
         cx="388.98663"
         id="ellipse4267"
         style="opacity:1;fill:#b4b4b4;fill-opacity:1;stroke:#000000;stroke-width:10;stroke-linecap:butt;stroke-linejoin:miter;stroke-miterlimit:4;stroke-dasharray:none;stroke-dashoffset:0;stroke-opacity:1" />
      <path
         style="fill:none;fill-rule:evenodd;stroke:#000000;stroke-width:10;stroke-linecap:butt;stroke-linejoin:miter;stroke-miterlimit:4;stroke-dasharray:none;stroke-opacity:1"
         d="m 152.94904,353.16378 0,58.10589"
         id="path4269"
         inkscape:connector-curvature="0" />
      <path
         inkscape:connector-curvature="0"
         id="path4271"
         d="m 624.94904,353.16378 0,58.10589"
         style="fill:none;fill-rule:evenodd;stroke:#000000;stroke-width:10;stroke-linecap:butt;stroke-linejoin:miter;stroke-miterlimit:4;stroke-dasharray:none;stroke-opacity:1" />
      <ellipse
         style="opacity:1;fill:#b4b4b4;fill-opacity:1;stroke:#000000;stroke-width:30;stroke-linecap:butt;stroke-linejoin:miter;stroke-miterlimit:4;stroke-dasharray:none;stroke-dashoffset:0;stroke-opacity:1"
         id="ellipse4273"
         cx="388.98663"
         cy="351.44238"
         rx="235.65166"
         ry="52.456703" />
      <path
         inkscape:connector-curvature="0"
         id="path4275"
         d="m 152.94904,353.16378 0,58.10589"
         style="fill:none;fill-rule:evenodd;stroke:#000000;stroke-width:30;stroke-linecap:butt;stroke-linejoin:miter;stroke-miterlimit:4;stroke-dasharray:none;stroke-opacity:1" />
      <path
         style="fill:none;fill-rule:evenodd;stroke:#000000;stroke-width:30;stroke-linecap:butt;stroke-linejoin:miter;stroke-miterlimit:4;stroke-dasharray:none;stroke-opacity:1"
         d="m 624.94904,353.16378 0,58.10589"
         id="path4277"
         inkscape:connector-curvature="0" />
      <path
         style="fill:none;fill-rule:evenodd;stroke:#000000;stroke-width:30;stroke-linecap:butt;stroke-linejoin:miter;stroke-miterlimit:4;stroke-dasharray:none;stroke-opacity:1"
         d="m 152.9352,409.66452 c 0,0 0.50278,8.75405 3.99457,13.12504 3.03387,3.79777 9.37516,8.04456 13.69569,10.27177 4.99559,2.5752 10.17723,4.79106 15.40765,6.84784 5.99007,2.3555 12.08952,4.44875 18.26092,6.27719 6.01583,1.78235 12.13947,3.18872 18.26092,4.56523 6.62407,1.48953 13.29147,2.78805 19.97288,3.99458 5.8779,1.06143 11.77597,2.0182 17.69027,2.85327 6.26103,0.88403 12.55182,1.54318 18.83157,2.28261 6.65499,0.78361 13.30008,1.66885 19.97288,2.28262 8.16479,0.75101 16.35622,1.17862 24.53811,1.71196 6.27539,0.40906 12.55056,0.83022 18.83157,1.1413 9.88653,0.48966 19.77718,0.95106 29.674,1.14131 6.46621,0.1243 12.9352,0.0703 19.40222,0 8.75157,-0.0951 17.50291,-0.27681 26.25007,-0.57065 8.37351,-0.28128 16.74669,-0.62133 25.10877,-1.14131 7.23679,-0.45001 14.45889,-1.11256 21.68484,-1.71196 8.75298,-0.72607 17.52436,-1.28075 26.25007,-2.28262 9.35385,-1.07399 18.65746,-2.55478 27.96203,-3.99457 6.86065,-1.06162 13.73271,-2.07921 20.54354,-3.42392 6.69999,-1.32282 13.33102,-2.9761 19.97288,-4.56523 6.10208,-1.45998 12.24835,-2.77193 18.26092,-4.56523 4.43888,-1.32393 8.81734,-2.86224 13.12503,-4.56523 5.22667,-2.0663 10.40063,-4.29493 15.40765,-6.84785 3.72045,-1.89694 7.4712,-3.81244 10.84242,-6.27719 2.28276,-1.66896 4.97472,-3.19657 6.27719,-5.70654 1.41273,-2.72245 1.14131,-9.13046 1.14131,-9.13046"
         id="path4279"
         inkscape:connector-curvature="0"
         sodipodi:nodetypes="csssssssssssssssssssssssssc" />
      <path
         sodipodi:nodetypes="csssssssssssssssssssssssssc"
         inkscape:connector-curvature="0"
         id="path4281"
         d="m 152.9352,347.66452 c 0,0 0.50278,8.75405 3.99457,13.12504 3.03387,3.79777 9.37516,8.04456 13.69569,10.27177 4.99559,2.5752 10.17723,4.79106 15.40765,6.84784 5.99007,2.3555 12.08952,4.44875 18.26092,6.27719 6.01583,1.78235 12.13947,3.18872 18.26092,4.56523 6.62407,1.48953 13.29147,2.78805 19.97288,3.99458 5.8779,1.06143 11.77597,2.0182 17.69027,2.85327 6.26103,0.88403 12.55182,1.54318 18.83157,2.28261 6.65499,0.78361 13.30008,1.66885 19.97288,2.28262 8.16479,0.75101 16.35622,1.17862 24.53811,1.71196 6.27539,0.40906 12.55056,0.83022 18.83157,1.1413 9.88653,0.48966 19.77718,0.95106 29.674,1.14131 6.46621,0.1243 12.9352,0.0703 19.40222,0 8.75157,-0.0951 17.50291,-0.27681 26.25007,-0.57065 8.37351,-0.28128 16.74669,-0.62133 25.10877,-1.14131 7.23679,-0.45001 14.45889,-1.11256 21.68484,-1.71196 8.75298,-0.72607 17.52436,-1.28075 26.25007,-2.28262 9.35385,-1.07399 18.65746,-2.55478 27.96203,-3.99457 6.86065,-1.06162 13.73271,-2.07921 20.54354,-3.42392 6.69999,-1.32282 13.33102,-2.9761 19.97288,-4.56523 6.10208,-1.45998 12.24835,-2.77193 18.26092,-4.56523 4.43888,-1.32393 8.81734,-2.86224 13.12503,-4.56523 5.22667,-2.0663 10.40063,-4.29493 15.40765,-6.84785 3.72045,-1.89694 7.4712,-3.81244 10.84242,-6.27719 2.28276,-1.66896 4.97472,-3.19657 6.27719,-5.70654 1.41273,-2.72245 1.14131,-9.13046 1.14131,-9.13046"
         style="fill:none;fill-rule:evenodd;stroke:#000000;stroke-width:10;stroke-linecap:butt;stroke-linejoin:miter;stroke-miterlimit:4;stroke-dasharray:none;stroke-opacity:1" />
      <path
         style="opacity:1;fill:#b4b4b4;fill-opacity:1;stroke:#b4b4b4;stroke-width:0;stroke-linecap:butt;stroke-linejoin:miter;stroke-miterlimit:4;stroke-dasharray:none;stroke-dashoffset:0;stroke-opacity:1"
         d="m 324.27129,458.47508 c -68.86555,-5.17009 -119.69073,-15.28671 -148.3447,-29.52761 -16.04249,-7.97306 -16.98944,-9.96358 -17.66299,-37.12818 -0.55494,-22.3812 -0.50056,-22.8195 2.49478,-20.10875 1.68415,1.52413 7.75003,4.88952 13.47973,7.47863 75.23129,33.99518 265.79415,40.86307 382.45674,13.78373 22.86234,-5.30673 35.52306,-9.56539 50.59092,-17.01717 l 12.66069,-6.26133 -0.5553,23.1798 c -0.4113,17.16937 -1.15898,23.90637 -2.88347,25.98186 -3.20349,3.85553 -21.77557,13.01036 -35.95266,17.72233 -24.98963,8.30568 -70.15883,16.43483 -113.4401,20.41594 -25.078,2.30673 -118.88847,3.27919 -142.84364,1.48075 z"
         id="path4283"
         inkscape:connector-curvature="0" />
    </g>
    <g
       transform="translate(0,-260)"
       id="g4285">
      <ellipse
         ry="52.456703"
         rx="235.65166"
         cy="411.44238"
         cx="388.98663"
         id="ellipse4287"
         style="opacity:1;fill:#b4b4b4;fill-opacity:1;stroke:#000000;stroke-width:10;stroke-linecap:butt;stroke-linejoin:miter;stroke-miterlimit:4;stroke-dasharray:none;stroke-dashoffset:0;stroke-opacity:1" />
      <ellipse
         style="opacity:1;fill:#b4b4b4;fill-opacity:1;stroke:#000000;stroke-width:10;stroke-linecap:butt;stroke-linejoin:miter;stroke-miterlimit:4;stroke-dasharray:none;stroke-dashoffset:0;stroke-opacity:1"
         id="ellipse4289"
         cx="388.98663"
         cy="351.44238"
         rx="235.65166"
         ry="52.456703" />
      <path
         inkscape:connector-curvature="0"
         id="path4291"
         d="m 152.94904,353.16378 0,58.10589"
         style="fill:none;fill-rule:evenodd;stroke:#000000;stroke-width:10;stroke-linecap:butt;stroke-linejoin:miter;stroke-miterlimit:4;stroke-dasharray:none;stroke-opacity:1" />
      <path
         style="fill:none;fill-rule:evenodd;stroke:#000000;stroke-width:10;stroke-linecap:butt;stroke-linejoin:miter;stroke-miterlimit:4;stroke-dasharray:none;stroke-opacity:1"
         d="m 624.94904,353.16378 0,58.10589"
         id="path4293"
         inkscape:connector-curvature="0" />
      <ellipse
         ry="52.456703"
         rx="235.65166"
         cy="351.44238"
         cx="388.98663"
         id="ellipse4295"
         style="opacity:1;fill:#b4b4b4;fill-opacity:1;stroke:#000000;stroke-width:30;stroke-linecap:butt;stroke-linejoin:miter;stroke-miterlimit:4;stroke-dasharray:none;stroke-dashoffset:0;stroke-opacity:1" />
      <path
         style="fill:none;fill-rule:evenodd;stroke:#000000;stroke-width:30;stroke-linecap:butt;stroke-linejoin:miter;stroke-miterlimit:4;stroke-dasharray:none;stroke-opacity:1"
         d="m 152.94904,353.16378 0,58.10589"
         id="path4297"
         inkscape:connector-curvature="0" />
      <path
         inkscape:connector-curvature="0"
         id="path4299"
         d="m 624.94904,353.16378 0,58.10589"
         style="fill:none;fill-rule:evenodd;stroke:#000000;stroke-width:30;stroke-linecap:butt;stroke-linejoin:miter;stroke-miterlimit:4;stroke-dasharray:none;stroke-opacity:1" />
      <path
         sodipodi:nodetypes="csssssssssssssssssssssssssc"
         inkscape:connector-curvature="0"
         id="path4301"
         d="m 152.9352,409.66452 c 0,0 0.50278,8.75405 3.99457,13.12504 3.03387,3.79777 9.37516,8.04456 13.69569,10.27177 4.99559,2.5752 10.17723,4.79106 15.40765,6.84784 5.99007,2.3555 12.08952,4.44875 18.26092,6.27719 6.01583,1.78235 12.13947,3.18872 18.26092,4.56523 6.62407,1.48953 13.29147,2.78805 19.97288,3.99458 5.8779,1.06143 11.77597,2.0182 17.69027,2.85327 6.26103,0.88403 12.55182,1.54318 18.83157,2.28261 6.65499,0.78361 13.30008,1.66885 19.97288,2.28262 8.16479,0.75101 16.35622,1.17862 24.53811,1.71196 6.27539,0.40906 12.55056,0.83022 18.83157,1.1413 9.88653,0.48966 19.77718,0.95106 29.674,1.14131 6.46621,0.1243 12.9352,0.0703 19.40222,0 8.75157,-0.0951 17.50291,-0.27681 26.25007,-0.57065 8.37351,-0.28128 16.74669,-0.62133 25.10877,-1.14131 7.23679,-0.45001 14.45889,-1.11256 21.68484,-1.71196 8.75298,-0.72607 17.52436,-1.28075 26.25007,-2.28262 9.35385,-1.07399 18.65746,-2.55478 27.96203,-3.99457 6.86065,-1.06162 13.73271,-2.07921 20.54354,-3.42392 6.69999,-1.32282 13.33102,-2.9761 19.97288,-4.56523 6.10208,-1.45998 12.24835,-2.77193 18.26092,-4.56523 4.43888,-1.32393 8.81734,-2.86224 13.12503,-4.56523 5.22667,-2.0663 10.40063,-4.29493 15.40765,-6.84785 3.72045,-1.89694 7.4712,-3.81244 10.84242,-6.27719 2.28276,-1.66896 4.97472,-3.19657 6.27719,-5.70654 1.41273,-2.72245 1.14131,-9.13046 1.14131,-9.13046"
         style="fill:none;fill-rule:evenodd;stroke:#000000;stroke-width:30;stroke-linecap:butt;stroke-linejoin:miter;stroke-miterlimit:4;stroke-dasharray:none;stroke-opacity:1" />
      <path
         style="fill:none;fill-rule:evenodd;stroke:#000000;stroke-width:10;stroke-linecap:butt;stroke-linejoin:miter;stroke-miterlimit:4;stroke-dasharray:none;stroke-opacity:1"
         d="m 152.9352,347.66452 c 0,0 0.50278,8.75405 3.99457,13.12504 3.03387,3.79777 9.37516,8.04456 13.69569,10.27177 4.99559,2.5752 10.17723,4.79106 15.40765,6.84784 5.99007,2.3555 12.08952,4.44875 18.26092,6.27719 6.01583,1.78235 12.13947,3.18872 18.26092,4.56523 6.62407,1.48953 13.29147,2.78805 19.97288,3.99458 5.8779,1.06143 11.77597,2.0182 17.69027,2.85327 6.26103,0.88403 12.55182,1.54318 18.83157,2.28261 6.65499,0.78361 13.30008,1.66885 19.97288,2.28262 8.16479,0.75101 16.35622,1.17862 24.53811,1.71196 6.27539,0.40906 12.55056,0.83022 18.83157,1.1413 9.88653,0.48966 19.77718,0.95106 29.674,1.14131 6.46621,0.1243 12.9352,0.0703 19.40222,0 8.75157,-0.0951 17.50291,-0.27681 26.25007,-0.57065 8.37351,-0.28128 16.74669,-0.62133 25.10877,-1.14131 7.23679,-0.45001 14.45889,-1.11256 21.68484,-1.71196 8.75298,-0.72607 17.52436,-1.28075 26.25007,-2.28262 9.35385,-1.07399 18.65746,-2.55478 27.96203,-3.99457 6.86065,-1.06162 13.73271,-2.07921 20.54354,-3.42392 6.69999,-1.32282 13.33102,-2.9761 19.97288,-4.56523 6.10208,-1.45998 12.24835,-2.77193 18.26092,-4.56523 4.43888,-1.32393 8.81734,-2.86224 13.12503,-4.56523 5.22667,-2.0663 10.40063,-4.29493 15.40765,-6.84785 3.72045,-1.89694 7.4712,-3.81244 10.84242,-6.27719 2.28276,-1.66896 4.97472,-3.19657 6.27719,-5.70654 1.41273,-2.72245 1.14131,-9.13046 1.14131,-9.13046"
         id="path4303"
         inkscape:connector-curvature="0"
         sodipodi:nodetypes="csssssssssssssssssssssssssc" />
      <path
         inkscape:connector-curvature="0"
         id="path4305"
         d="m 324.27129,458.47508 c -68.86555,-5.17009 -119.69073,-15.28671 -148.3447,-29.52761 -16.04249,-7.97306 -16.98944,-9.96358 -17.66299,-37.12818 -0.55494,-22.3812 -0.50056,-22.8195 2.49478,-20.10875 1.68415,1.52413 7.75003,4.88952 13.47973,7.47863 75.23129,33.99518 265.79415,40.86307 382.45674,13.78373 22.86234,-5.30673 35.52306,-9.56539 50.59092,-17.01717 l 12.66069,-6.26133 -0.5553,23.1798 c -0.4113,17.16937 -1.15898,23.90637 -2.88347,25.98186 -3.20349,3.85553 -21.77557,13.01036 -35.95266,17.72233 -24.98963,8.30568 -70.15883,16.43483 -113.4401,20.41594 -25.078,2.30673 -118.88847,3.27919 -142.84364,1.48075 z"
         style="opacity:1;fill:#b4b4b4;fill-opacity:1;stroke:#b4b4b4;stroke-width:0;stroke-linecap:butt;stroke-linejoin:miter;stroke-miterlimit:4;stroke-dasharray:none;stroke-dashoffset:0;stroke-opacity:1" />
    </g>
  </g>
</svg>
